<mxfile host="app.diagrams.net" agent="Mozilla/5.0 (Linux; Android 10; K) AppleWebKit/537.36 (KHTML, like Gecko) Chrome/128.0.0.0 Safari/537.36" version="24.7.8">
  <diagram name="Login" id="Aik3ECJ7VKw_8JUWcA8D">
    <mxGraphModel dx="1342" dy="1152" grid="0" gridSize="10" guides="1" tooltips="1" connect="1" arrows="1" fold="1" page="0" pageScale="1" pageWidth="827" pageHeight="1169" math="0" shadow="0">
      <root>
        <mxCell id="0" />
        <mxCell id="1" parent="0" />
        <mxCell id="vEJCQPq3aZARxCtG9cWY-3" style="edgeStyle=none;curved=1;rounded=0;orthogonalLoop=1;jettySize=auto;html=1;fontSize=12;startSize=8;endSize=8;labelBackgroundColor=none;strokeColor=#736CA8;fontColor=default;" edge="1" parent="1" source="vEJCQPq3aZARxCtG9cWY-1" target="vEJCQPq3aZARxCtG9cWY-2">
          <mxGeometry relative="1" as="geometry" />
        </mxCell>
        <mxCell id="vEJCQPq3aZARxCtG9cWY-1" value="FE" style="rounded=0;whiteSpace=wrap;html=1;labelBackgroundColor=none;fillColor=#5D7F99;strokeColor=#D0CEE2;fontColor=#1A1A1A;" vertex="1" parent="1">
          <mxGeometry x="-249" y="-375" width="120" height="60" as="geometry" />
        </mxCell>
        <mxCell id="vEJCQPq3aZARxCtG9cWY-6" style="edgeStyle=none;curved=1;rounded=0;orthogonalLoop=1;jettySize=auto;html=1;entryX=0;entryY=0.5;entryDx=0;entryDy=0;fontSize=12;startSize=8;endSize=8;labelBackgroundColor=none;strokeColor=#736CA8;fontColor=default;" edge="1" parent="1" source="vEJCQPq3aZARxCtG9cWY-2" target="vEJCQPq3aZARxCtG9cWY-5">
          <mxGeometry relative="1" as="geometry" />
        </mxCell>
        <mxCell id="vEJCQPq3aZARxCtG9cWY-2" value="OAUTH 2.0" style="rounded=0;whiteSpace=wrap;html=1;labelBackgroundColor=none;fillColor=#5D7F99;strokeColor=#D0CEE2;fontColor=#1A1A1A;" vertex="1" parent="1">
          <mxGeometry x="34" y="-375" width="120" height="55.5" as="geometry" />
        </mxCell>
        <mxCell id="vEJCQPq3aZARxCtG9cWY-4" style="edgeStyle=none;curved=1;rounded=0;orthogonalLoop=1;jettySize=auto;html=1;exitX=0;exitY=0.5;exitDx=0;exitDy=0;fontSize=12;startSize=8;endSize=8;labelBackgroundColor=none;strokeColor=#736CA8;fontColor=default;" edge="1" parent="1" source="vEJCQPq3aZARxCtG9cWY-2" target="vEJCQPq3aZARxCtG9cWY-2">
          <mxGeometry relative="1" as="geometry" />
        </mxCell>
        <mxCell id="vEJCQPq3aZARxCtG9cWY-5" value="Redis" style="rounded=0;whiteSpace=wrap;html=1;labelBackgroundColor=none;fillColor=#5D7F99;strokeColor=#D0CEE2;fontColor=#1A1A1A;" vertex="1" parent="1">
          <mxGeometry x="253" y="-377.25" width="120" height="60" as="geometry" />
        </mxCell>
        <mxCell id="vEJCQPq3aZARxCtG9cWY-8" value="/api/auth/signup" style="text;html=1;align=center;verticalAlign=middle;whiteSpace=wrap;rounded=0;fontSize=16;labelBackgroundColor=none;fontColor=#1A1A1A;" vertex="1" parent="1">
          <mxGeometry x="-115" y="-398" width="136" height="51" as="geometry" />
        </mxCell>
        <mxCell id="vEJCQPq3aZARxCtG9cWY-14" style="edgeStyle=none;curved=1;rounded=0;orthogonalLoop=1;jettySize=auto;html=1;fontSize=12;startSize=8;endSize=8;labelBackgroundColor=none;strokeColor=#736CA8;fontColor=default;" edge="1" parent="1" source="vEJCQPq3aZARxCtG9cWY-11" target="vEJCQPq3aZARxCtG9cWY-13">
          <mxGeometry relative="1" as="geometry" />
        </mxCell>
        <mxCell id="vEJCQPq3aZARxCtG9cWY-11" value="FE" style="rounded=0;whiteSpace=wrap;html=1;labelBackgroundColor=none;fillColor=#5D7F99;strokeColor=#D0CEE2;fontColor=#1A1A1A;" vertex="1" parent="1">
          <mxGeometry x="-249" y="-209" width="120" height="60" as="geometry" />
        </mxCell>
        <mxCell id="vEJCQPq3aZARxCtG9cWY-12" value="/api/auth/login" style="text;html=1;align=center;verticalAlign=middle;whiteSpace=wrap;rounded=0;fontSize=16;labelBackgroundColor=none;fontColor=#1A1A1A;" vertex="1" parent="1">
          <mxGeometry x="-118" y="-352" width="136" height="51" as="geometry" />
        </mxCell>
        <mxCell id="vEJCQPq3aZARxCtG9cWY-17" style="edgeStyle=none;curved=1;rounded=0;orthogonalLoop=1;jettySize=auto;html=1;fontSize=12;startSize=8;endSize=8;labelBackgroundColor=none;strokeColor=#736CA8;fontColor=default;" edge="1" parent="1" source="vEJCQPq3aZARxCtG9cWY-13" target="vEJCQPq3aZARxCtG9cWY-16">
          <mxGeometry relative="1" as="geometry" />
        </mxCell>
        <mxCell id="vEJCQPq3aZARxCtG9cWY-23" style="edgeStyle=none;curved=1;rounded=0;orthogonalLoop=1;jettySize=auto;html=1;fontSize=12;startSize=8;endSize=8;" edge="1" parent="1" source="vEJCQPq3aZARxCtG9cWY-13" target="vEJCQPq3aZARxCtG9cWY-19">
          <mxGeometry relative="1" as="geometry" />
        </mxCell>
        <mxCell id="vEJCQPq3aZARxCtG9cWY-24" style="edgeStyle=none;curved=1;rounded=0;orthogonalLoop=1;jettySize=auto;html=1;entryX=0;entryY=0.5;entryDx=0;entryDy=0;fontSize=12;startSize=8;endSize=8;" edge="1" parent="1" source="vEJCQPq3aZARxCtG9cWY-13" target="vEJCQPq3aZARxCtG9cWY-22">
          <mxGeometry relative="1" as="geometry" />
        </mxCell>
        <mxCell id="vEJCQPq3aZARxCtG9cWY-13" value="BE" style="rounded=0;whiteSpace=wrap;html=1;labelBackgroundColor=none;fillColor=#5D7F99;strokeColor=#D0CEE2;fontColor=#1A1A1A;" vertex="1" parent="1">
          <mxGeometry x="41" y="-209" width="120" height="60" as="geometry" />
        </mxCell>
        <mxCell id="vEJCQPq3aZARxCtG9cWY-16" value="Redis" style="rounded=0;whiteSpace=wrap;html=1;labelBackgroundColor=none;fillColor=#5D7F99;strokeColor=#D0CEE2;fontColor=#1A1A1A;" vertex="1" parent="1">
          <mxGeometry x="41" y="-50" width="120" height="67" as="geometry" />
        </mxCell>
        <mxCell id="vEJCQPq3aZARxCtG9cWY-19" value="MySql" style="rounded=0;whiteSpace=wrap;html=1;labelBackgroundColor=none;fillColor=#5D7F99;strokeColor=#D0CEE2;fontColor=#1A1A1A;" vertex="1" parent="1">
          <mxGeometry x="292" y="-211.5" width="120" height="65" as="geometry" />
        </mxCell>
        <mxCell id="vEJCQPq3aZARxCtG9cWY-20" value="Notification worker" style="rounded=0;whiteSpace=wrap;html=1;labelBackgroundColor=none;fillColor=#5D7F99;strokeColor=#D0CEE2;fontColor=#1A1A1A;" vertex="1" parent="1">
          <mxGeometry x="508" y="-113.5" width="120" height="67" as="geometry" />
        </mxCell>
        <mxCell id="vEJCQPq3aZARxCtG9cWY-25" style="edgeStyle=none;curved=1;rounded=0;orthogonalLoop=1;jettySize=auto;html=1;fontSize=12;startSize=8;endSize=8;" edge="1" parent="1" source="vEJCQPq3aZARxCtG9cWY-22" target="vEJCQPq3aZARxCtG9cWY-20">
          <mxGeometry relative="1" as="geometry" />
        </mxCell>
        <mxCell id="vEJCQPq3aZARxCtG9cWY-22" value="Queue RabbitMQ" style="rounded=0;whiteSpace=wrap;html=1;" vertex="1" parent="1">
          <mxGeometry x="292" y="-116" width="118" height="60" as="geometry" />
        </mxCell>
        <mxCell id="vEJCQPq3aZARxCtG9cWY-26" value="1" style="text;html=1;align=center;verticalAlign=middle;whiteSpace=wrap;rounded=0;fontSize=16;" vertex="1" parent="1">
          <mxGeometry x="-77" y="-216" width="60" height="32" as="geometry" />
        </mxCell>
        <mxCell id="vEJCQPq3aZARxCtG9cWY-27" value="2" style="text;html=1;align=center;verticalAlign=middle;whiteSpace=wrap;rounded=0;fontSize=16;" vertex="1" parent="1">
          <mxGeometry x="103" y="-110" width="60" height="32" as="geometry" />
        </mxCell>
        <mxCell id="vEJCQPq3aZARxCtG9cWY-28" value="3" style="text;html=1;align=center;verticalAlign=middle;whiteSpace=wrap;rounded=0;fontSize=16;" vertex="1" parent="1">
          <mxGeometry x="190" y="-212" width="60" height="28" as="geometry" />
        </mxCell>
        <mxCell id="vEJCQPq3aZARxCtG9cWY-29" value="4" style="text;html=1;align=center;verticalAlign=middle;whiteSpace=wrap;rounded=0;fontSize=16;" vertex="1" parent="1">
          <mxGeometry x="201" y="-141.5" width="60" height="28" as="geometry" />
        </mxCell>
        <mxCell id="vEJCQPq3aZARxCtG9cWY-30" value="5" style="text;html=1;align=center;verticalAlign=middle;whiteSpace=wrap;rounded=0;fontSize=16;" vertex="1" parent="1">
          <mxGeometry x="421" y="-113.5" width="60" height="28" as="geometry" />
        </mxCell>
      </root>
    </mxGraphModel>
  </diagram>
</mxfile>
